<svg width="27" height="27" viewBox="0 0 27 27" fill="none" xmlns="http://www.w3.org/2000/svg">
<path fill-rule="evenodd" clip-rule="evenodd" d="M3.23754 2.82488L3.12341 2.81294C2.70808 2.79776 2.3351 3.09147 2.26225 3.51237L2.25032 3.6265C2.23514 4.04183 2.52885 4.41481 2.94975 4.48766L4.64738 4.78127L5.67623 17.039L5.69752 17.2232C5.90452 18.6209 7.10675 19.6718 8.53864 19.6718H20.8146L20.9995 19.6659C22.3454 19.5799 23.4613 18.5621 23.6578 17.2101L24.7254 9.83185L24.7439 9.66238C24.8421 8.31342 23.7735 7.14264 22.3975 7.14264H6.53851L6.27444 3.99069L6.25454 3.86598C6.17754 3.54162 5.91386 3.28809 5.57754 3.22988L3.23754 2.82488ZM8.40805 17.9772C7.85087 17.9162 7.40528 17.4687 7.35769 16.8982L6.68009 8.83014H22.3974L22.4965 8.83743C22.8517 8.89024 23.1084 9.22242 23.0552 9.59025L21.9876 16.9679L21.9608 17.0998C21.8254 17.6157 21.358 17.9843 20.8145 17.9843H8.53848L8.40805 17.9772ZM6.64677 23.1585C6.64677 22.2179 7.40915 21.4541 8.35002 21.4541C9.29076 21.4541 10.0544 22.2177 10.0544 23.1585C10.0544 24.0993 9.29064 24.8617 8.35002 24.8617C7.40928 24.8617 6.64677 24.0992 6.64677 23.1585ZM19.3047 23.1585C19.3047 22.2177 20.0684 21.4541 21.0091 21.4541C21.9498 21.4541 22.7135 22.2177 22.7135 23.1585C22.7135 24.0993 21.9497 24.8617 21.0091 24.8617C20.0685 24.8617 19.3047 24.0993 19.3047 23.1585ZM19.8543 12.1444C19.8543 11.6784 19.4766 11.3006 19.0106 11.3006H15.8909L15.7765 11.3083C15.3646 11.3642 15.0472 11.7172 15.0472 12.1444C15.0472 12.6104 15.425 12.9881 15.8909 12.9881H19.0106L19.1251 12.9804C19.5369 12.9246 19.8543 12.5715 19.8543 12.1444Z" fill="#333333"/>
</svg>
